<?xml version="1.0" encoding="UTF-8"?>
<svg xmlns="http://www.w3.org/2000/svg" xmlns:xlink="http://www.w3.org/1999/xlink" width="39px" height="50px" viewBox="0 0 39 50" version="1.1">
<g id="surface1">
<path style=" stroke:none;fill-rule:nonzero;fill:rgb(100%,100%,100%);fill-opacity:1;" d="M 1.394531 14.304688 L 37.605469 14.304688 C 38.375 14.304688 39 13.6875 39 12.925781 L 39 9.476562 C 39 8.714844 38.375 8.097656 37.605469 8.097656 L 1.394531 8.097656 C 0.625 8.097656 0 8.714844 0 9.476562 L 0 12.925781 C 0 13.6875 0.625 14.304688 1.394531 14.304688 Z M 1.394531 28.105469 L 37.605469 28.105469 C 38.375 28.105469 39 27.488281 39 26.726562 L 39 23.273438 C 39 22.511719 38.375 21.894531 37.605469 21.894531 L 1.394531 21.894531 C 0.625 21.894531 0 22.511719 0 23.273438 L 0 26.726562 C 0 27.488281 0.625 28.105469 1.394531 28.105469 Z M 1.394531 41.902344 L 37.605469 41.902344 C 38.375 41.902344 39 41.285156 39 40.523438 L 39 37.074219 C 39 36.3125 38.375 35.695312 37.605469 35.695312 L 1.394531 35.695312 C 0.625 35.695312 0 36.3125 0 37.074219 L 0 40.523438 C 0 41.285156 0.625 41.902344 1.394531 41.902344 Z M 1.394531 41.902344 "/>
</g>
</svg>
